<svg xmlns="http://www.w3.org/2000/svg" viewBox="-1890 6768 40 40">
  <defs>
    <style>
      .cls-1 {
        fill: #000;
      }
    </style>
  </defs>
  <g id="Logo" transform="translate(-1890 6768)">
    <path id="logo-2" data-name="logo" class="cls-1" d="M-647.392-345v-6.9h6.9v6.9Zm8.187-8.187v-6.9h6.9v6.9Zm-8.187,0v-6.9h6.9v6.9Zm-8.3,0v-6.9h6.9v6.9Zm30.526-8.3-1.52-2.573h-3.275v2.573h-.936v-6.9h6.9v4.327h-1.52l1.52,2.573Zm-4.8-3.509h4.8v-2.573h-4.8Zm-9.24,3.509v-6.9h6.9v1.053h-5.848v1.637h5.848v1.053h-5.848v1.988h5.848v1.17Zm-5.567,0-2.62-5.029v-1.871h.48l2.854,5.5h.117l2.854-5.5h.6v1.52l-2.737,5.38Zm-10.924,0v-6.9h6.784v6.9Zm.936-1.17h4.8v-4.678h-4.8Zm-9.24,1.17v-6.9h.936v5.731h5.965v1.17Zm33.1-8.3v-6.9h6.9v6.9Zm-8.3,0v-6.9h6.9v4.444h-5.965v2.456Zm.936-3.392h4.8v-2.573h-4.8Zm-9.123,3.392v-6.9h6.9v4.561h-5.965v2.339Zm.936-3.392h4.8v-2.573h-4.8Zm-3.509,3.392v-2.339h-4.8v2.339h-.936v-6.9h6.9v6.9Zm-4.8-3.392h4.8v-2.573h-4.8ZM-664-369.8v-6.9h6.9v6.9Zm24.8-8.3V-385h6.9v6.9Zm-16.491,0V-385h6.9v6.9Z" transform="translate(664 385)"/>
  </g>
</svg>
